<svg xmlns="http://www.w3.org/2000/svg" viewBox="0 0 139.61 139.73"><defs><style>.cls-1{fill:#fff;}</style></defs><title>Asset 1</title><g id="Layer_2" data-name="Layer 2"><g id="Layer_1-2" data-name="Layer 1"><path class="cls-1" d="M.07,66.34c.25-7.75,4-19.58,4-19.58a22,22,0,0,1,9.75,3.17,21.87,21.87,0,0,1,6.83,6.63,21.75,21.75,0,0,1,3.27,9.56,24.59,24.59,0,0,1-1.31,11.44A22.66,22.66,0,0,1,14.3,88.36a22.37,22.37,0,0,1-10,3.75A62,62,0,0,1,.82,79.5,63.44,63.44,0,0,1,.07,66.34Z"/><path class="cls-1" d="M23.16,17.89c5.68-5.28,16.72-11,16.72-11A21.87,21.87,0,0,1,44.61,25.6a21.75,21.75,0,0,1-4.48,9.06,24.59,24.59,0,0,1-9,7.13,22.66,22.66,0,0,1-13.53,1.72,22.37,22.37,0,0,1-9.71-4.46A62,62,0,0,1,14.34,27.7,63.44,63.44,0,0,1,23.16,17.89Z"/><path class="cls-1" d="M72,0c1.4,0,2.72.13,4,.24a86.56,86.56,0,0,1,8.81,1.36c4.14.77,3.47.8,5.4,1.2a10,10,0,0,1,1.56.44c.4.15.72.3.91.39a28.28,28.28,0,0,1-3.7,9.47,22.37,22.37,0,0,1-6.36,7.08,21.75,21.75,0,0,1-9.43,3.64A24.59,24.59,0,0,1,61.67,23a20.64,20.64,0,0,1-11.12-7.89A19.84,19.84,0,0,1,47.24,3.73,74.57,74.57,0,0,1,58.49,1,71.64,71.64,0,0,1,72,0Z"/><path class="cls-1" d="M120.77,21.94a71.6,71.6,0,0,1,7.8,10.24c2.19,3.4,3.7,6.11,3.7,6.11a21.87,21.87,0,0,1-18.5,5.34,21.75,21.75,0,0,1-9.2-4.19,24.59,24.59,0,0,1-7.42-8.81A20.64,20.64,0,0,1,95,17.17a19.84,19.84,0,0,1,5.79-10.32A74.57,74.57,0,0,1,110.62,13,71.64,71.64,0,0,1,120.77,21.94Z"/><path class="cls-1" d="M132.73,64.86"/><path class="cls-1" d="M140.11,96.48"/><path class="cls-1" d="M143.15,84.82"/><path class="cls-1" d="M133.8,52.83"/><path class="cls-1" d="M139.54,71.75a71.6,71.6,0,0,1-1.86,12.73c-.9,3.94-1.78,6.92-1.78,6.92a21.87,21.87,0,0,1-16.76-9.49,21.75,21.75,0,0,1-3.44-9.5A24.59,24.59,0,0,1,116.79,61a20.64,20.64,0,0,1,8.11-11,19.84,19.84,0,0,1,11.42-3.08,74.57,74.57,0,0,1,2.52,11.3A71.64,71.64,0,0,1,139.54,71.75Z"/><path class="cls-1" d="M117.12,120.73a71.6,71.6,0,0,1-10.2,7.85c-3.39,2.21-6.09,3.73-6.09,3.73a21.87,21.87,0,0,1-5.43-18.48,21.75,21.75,0,0,1,4.14-9.22,24.59,24.59,0,0,1,8.77-7.46,20.64,20.64,0,0,1,13.46-2.23,19.84,19.84,0,0,1,10.35,5.74,74.57,74.57,0,0,1-6.05,9.87A71.64,71.64,0,0,1,117.12,120.73Z"/><path class="cls-1" d="M67.48,139.56a71.6,71.6,0,0,1-12.69-2.16c-3.92-1-6.88-1.94-6.88-1.94a21.87,21.87,0,0,1,9.88-16.53,21.75,21.75,0,0,1,9.58-3.22,24.59,24.59,0,0,1,11.43,1.37,20.64,20.64,0,0,1,10.77,8.37,19.84,19.84,0,0,1,2.81,11.49A74.57,74.57,0,0,1,81,139.19,71.64,71.64,0,0,1,67.48,139.56Z"/><path class="cls-1" d="M18.92,117.36a71.6,71.6,0,0,1-8.18-9.93c-2.32-3.31-3.93-6-3.93-6a21.87,21.87,0,0,1,18.29-6,21.75,21.75,0,0,1,9.35,3.83,24.59,24.59,0,0,1,7.75,8.52,20.64,20.64,0,0,1,2.67,13.37,19.84,19.84,0,0,1-5.39,10.53A74.57,74.57,0,0,1,29.41,126,71.64,71.64,0,0,1,18.92,117.36Z"/><circle class="cls-1" cx="45.92" cy="93.55" r="6.85"/><circle class="cls-1" cx="70.09" cy="102.96" r="6.85"/><circle class="cls-1" cx="93.92" cy="93.55" r="6.85"/><circle class="cls-1" cx="36.09" cy="69.43" r="6.85"/><circle class="cls-1" cx="45.92" cy="45.32" r="6.85"/><circle class="cls-1" cx="69.94" cy="36.05" r="6.85"/><circle class="cls-1" cx="93.92" cy="45.32" r="6.85"/><circle class="cls-1" cx="103.17" cy="69.43" r="6.85"/></g></g></svg>